<?xml version="1.0" standalone="no"?>
<!DOCTYPE svg PUBLIC "-//W3C//DTD SVG 20010904//EN"
 "http://www.w3.org/TR/2001/REC-SVG-20010904/DTD/svg10.dtd">
<svg version="1.0" xmlns="http://www.w3.org/2000/svg"
 width="960.000000pt" height="960.000000pt" viewBox="0 0 960.000000 960.000000"
 preserveAspectRatio="xMidYMid meet">
<metadata>
Created by potrace 1.14, written by Peter Selinger 2001-2017
</metadata>
<g transform="translate(0.000000,960.000000) scale(0.100000,-0.100000)"
fill="#000000" stroke="none">
<path d="M8815 9166 c-128 -39 -211 -73 -353 -143 -302 -149 -562 -365 -946
-783 -298 -326 -505 -547 -732 -784 -128 -133 -274 -290 -326 -351 -53 -60
-157 -175 -233 -255 -75 -80 -182 -197 -238 -260 -56 -63 -135 -151 -177 -195
-120 -127 -193 -229 -281 -392 -20 -38 -27 -59 -20 -66 7 -7 14 -1 22 17 9 19
15 23 20 14 6 -10 11 -9 21 4 15 19 84 73 248 192 63 46 169 128 235 183 66
54 163 131 215 172 117 92 247 212 689 640 431 417 574 560 727 731 140 156
211 252 351 475 151 238 208 326 263 399 52 70 53 100 1 41 -40 -46 -103 -140
-248 -371 -145 -231 -245 -373 -321 -456 -184 -203 -302 -329 -346 -373 -187
-184 -711 -689 -756 -730 -30 -28 -105 -97 -165 -155 -61 -58 -166 -149 -235
-203 -69 -53 -180 -141 -247 -195 -99 -80 -308 -239 -394 -301 -11 -8 -21 -12
-24 -10 -6 6 99 173 146 233 22 28 80 94 128 146 48 52 107 118 131 145 24 28
141 156 260 285 120 129 232 253 251 275 57 68 146 163 329 350 96 99 250 262
340 362 328 361 629 680 726 769 109 100 278 236 364 293 182 122 475 253 647
288 78 16 84 16 140 -1 133 -42 208 -92 239 -160 43 -95 49 -172 26 -338 -12
-81 -33 -182 -47 -225 -44 -130 -159 -333 -260 -458 -58 -71 -254 -264 -348
-342 -51 -41 -196 -163 -324 -271 -277 -233 -549 -428 -798 -572 -60 -35 -168
-98 -240 -140 -346 -204 -596 -338 -875 -469 -63 -29 -164 -78 -224 -108 -59
-30 -127 -61 -149 -69 -22 -8 -79 -38 -126 -66 -47 -29 -111 -62 -141 -74 -50
-21 -77 -44 -51 -44 24 0 121 45 187 86 39 24 113 63 165 85 52 22 99 44 104
49 6 4 141 70 300 147 160 76 333 163 385 192 52 30 160 91 240 136 80 45 195
111 255 147 61 36 166 98 235 139 189 110 511 342 718 518 101 86 237 198 301
250 178 145 394 366 477 491 163 243 212 369 245 628 13 104 8 201 -16 282
-23 75 -85 134 -190 179 -107 46 -188 51 -300 17z"/>
<path d="M8837 9028 c-24 -35 -72 -110 -107 -168 -151 -254 -281 -433 -544
-748 -211 -254 -310 -357 -526 -552 -95 -85 -232 -209 -304 -275 -474 -434
-811 -713 -1106 -915 -47 -32 -121 -85 -165 -119 -96 -74 -253 -180 -313 -210
-28 -14 -42 -28 -40 -38 4 -21 28 -29 28 -11 0 8 12 21 28 28 42 22 230 148
297 201 33 25 107 79 165 120 145 100 383 281 515 390 131 108 483 419 610
539 50 47 160 146 245 221 233 206 357 332 555 569 283 336 391 485 613 842
45 73 89 143 98 155 9 13 11 23 5 27 -5 4 -30 -22 -54 -56z"/>
<path d="M460 8928 c-67 -33 -122 -94 -144 -158 -45 -133 -25 -435 37 -556 8
-16 31 -75 50 -132 36 -104 111 -247 175 -337 197 -274 408 -482 695 -688 44
-31 112 -83 151 -115 39 -32 114 -82 166 -111 98 -55 293 -183 460 -301 116
-82 125 -87 275 -140 66 -23 154 -55 196 -71 41 -15 116 -33 165 -40 49 -6
111 -20 138 -30 61 -24 79 -24 74 -1 -2 9 -11 16 -21 14 -9 -1 -31 4 -48 13
-17 9 -71 21 -120 26 -58 6 -120 21 -181 43 -51 19 -150 55 -220 79 -128 45
-144 54 -398 234 -82 57 -294 190 -345 216 -27 14 -82 51 -120 83 -39 33 -99
79 -135 103 -36 24 -90 65 -120 90 -30 26 -93 77 -140 113 -254 197 -545 586
-626 835 -14 42 -34 93 -44 113 -59 117 -87 375 -54 503 25 97 48 134 112 175
55 35 61 37 163 40 93 4 115 1 190 -23 116 -36 143 -50 208 -99 31 -23 74 -53
96 -66 22 -13 69 -47 105 -75 36 -28 94 -71 130 -95 36 -24 95 -70 131 -103
37 -32 103 -84 147 -115 251 -177 505 -409 704 -642 58 -69 145 -170 193 -225
94 -110 327 -398 391 -485 23 -30 97 -138 166 -240 69 -102 146 -214 171 -250
l45 -65 -66 -38 c-37 -21 -90 -57 -118 -80 -158 -129 -215 -181 -220 -203 -5
-18 -19 -28 -63 -41 -47 -15 -69 -31 -138 -101 -110 -110 -130 -139 -159 -219
-26 -74 -33 -211 -15 -282 5 -20 17 -72 27 -116 25 -117 83 -223 158 -288 34
-28 80 -70 105 -93 24 -23 72 -56 106 -73 l63 -33 -72 -106 c-103 -152 -182
-263 -369 -518 -32 -44 -95 -133 -142 -199 -46 -66 -120 -165 -164 -220 -44
-55 -117 -154 -162 -220 -46 -66 -117 -166 -158 -222 -42 -56 -93 -128 -113
-160 -21 -32 -62 -87 -93 -123 -53 -63 -72 -96 -62 -107 6 -5 157 76 274 148
147 91 339 271 483 454 44 55 109 132 146 170 36 39 107 126 157 195 50 69
107 148 128 175 85 112 193 256 263 350 98 132 190 231 220 239 14 3 37 1 53
-5 50 -20 328 -28 418 -12 144 25 238 51 347 96 133 56 204 104 295 201 40 42
75 76 77 76 2 0 43 -39 92 -87 l89 -88 -3 -75 c-2 -41 2 -109 8 -150 6 -41 15
-282 20 -535 6 -309 14 -503 25 -590 45 -370 36 -608 -42 -1080 -13 -82 -35
-220 -49 -305 -65 -417 -96 -558 -154 -714 -50 -135 -133 -305 -165 -339 -14
-15 -48 -53 -74 -85 -26 -31 -83 -92 -126 -136 -63 -62 -77 -81 -69 -94 6 -9
15 -17 21 -19 12 -4 177 163 268 272 69 83 109 158 180 335 67 167 106 339
164 715 16 105 41 258 55 340 62 373 70 459 70 695 0 148 -6 271 -17 360 -29
228 -37 392 -37 720 0 206 -5 362 -15 450 -18 163 -18 190 -4 190 6 0 36 -16
67 -35 32 -19 98 -49 147 -67 75 -26 109 -32 201 -36 l112 -4 7 -52 c12 -95
25 -210 35 -311 5 -55 17 -174 26 -265 12 -129 16 -320 19 -867 2 -386 6 -711
10 -723 6 -19 -157 -608 -231 -830 -48 -146 -126 -301 -235 -465 -124 -189
-199 -283 -308 -388 -84 -81 -109 -117 -80 -117 21 0 186 159 249 240 108 136
258 369 320 495 69 142 99 232 211 624 l84 294 8 -149 c5 -103 3 -214 -8 -359
-8 -115 -19 -338 -25 -495 -6 -157 -13 -291 -16 -299 -2 -7 -9 -97 -14 -200
-5 -102 -14 -207 -18 -232 -13 -66 -7 -74 101 -157 71 -54 199 -104 219 -84
22 22 3 46 -52 62 -70 21 -92 33 -162 88 l-57 44 5 47 c10 90 15 111 27 111
50 1 242 217 304 342 90 180 132 333 227 833 91 478 119 660 146 935 33 335
65 547 130 852 20 97 64 378 80 518 5 41 16 136 24 210 20 172 27 196 53 192
11 -1 73 -27 139 -56 l119 -53 7 -144 c4 -79 12 -202 18 -274 29 -354 37 -653
20 -800 -23 -196 -30 -566 -20 -970 12 -507 25 -667 81 -1040 16 -108 84 -380
119 -480 53 -148 87 -210 140 -258 63 -57 111 -78 235 -106 55 -13 126 -29
158 -37 76 -18 87 -18 87 5 0 31 -22 41 -147 67 -175 36 -216 50 -270 93 -88
70 -158 251 -214 554 -29 158 -36 210 -64 492 -9 83 -20 184 -24 225 -45 378
-54 564 -46 944 3 187 13 421 21 518 14 182 9 394 -17 713 -9 107 -27 465 -24
472 2 4 180 -79 185 -87 3 -4 21 -11 41 -15 19 -4 40 -10 46 -13 6 -4 22 -88
36 -187 34 -234 94 -673 102 -750 4 -33 17 -130 30 -215 13 -85 31 -220 40
-300 23 -207 87 -503 160 -735 18 -60 59 -193 90 -295 31 -102 74 -237 95
-300 21 -63 48 -147 59 -185 12 -39 63 -153 114 -255 90 -181 94 -185 168
-250 84 -72 206 -151 259 -168 19 -6 60 -13 92 -17 52 -6 57 -5 63 16 10 30
-8 42 -95 68 -130 39 -195 70 -252 121 -75 66 -125 148 -199 320 -62 147 -151
395 -143 403 2 2 -20 69 -50 148 -182 485 -268 803 -307 1134 -11 94 -30 244
-44 335 -13 91 -36 257 -50 370 -15 113 -40 297 -56 410 -44 302 -43 300 -30
300 6 0 33 -11 59 -24 26 -13 75 -32 107 -41 33 -10 74 -23 90 -30 17 -6 57
-20 90 -30 33 -10 125 -40 205 -67 260 -89 504 -125 667 -99 123 20 453 100
505 123 60 27 115 86 139 149 15 39 17 58 9 98 -11 61 -79 169 -146 232 -63
59 -232 177 -348 241 -50 28 -133 76 -186 108 -52 31 -126 74 -165 95 -38 21
-86 49 -105 62 -19 13 -42 23 -51 23 -9 0 -34 12 -55 26 -49 33 -141 66 -281
100 -180 43 -288 56 -513 63 l-215 6 -7 55 c-13 95 -16 100 -47 100 -15 0 -47
-13 -69 -30 -43 -30 -62 -37 -62 -21 0 5 -13 23 -29 40 -26 27 -32 30 -56 21
-14 -5 -28 -10 -30 -10 -2 0 -5 21 -7 48 -3 43 -5 47 -31 50 -32 4 -90 -35
-203 -135 -39 -35 -74 -63 -78 -63 -24 0 -106 124 -132 199 -23 65 -52 84 -85
55 -12 -10 -41 -48 -64 -84 -59 -91 -79 -106 -147 -113 -51 -5 -58 -3 -58 13
0 27 -18 64 -90 184 -61 102 -83 127 -179 204 -48 39 -137 81 -235 111 -82 25
-255 29 -338 7 -78 -20 -158 -53 -179 -72 -11 -9 -22 -14 -25 -11 -4 3 -21 40
-39 81 -73 167 -208 333 -335 410 -100 61 -359 126 -503 126 -125 0 -362 -43
-432 -78 -21 -10 -30 -11 -33 -3 -2 6 -21 29 -42 51 -21 21 -62 76 -93 122
-226 339 -409 586 -582 783 -34 39 -126 147 -205 240 -160 189 -327 364 -428
449 -153 127 -301 244 -366 288 -39 26 -99 74 -135 106 -37 32 -92 75 -124 97
-42 27 -55 40 -45 46 10 7 10 11 0 21 -9 9 -15 9 -23 1 -9 -9 -27 1 -73 36
-33 27 -72 54 -86 61 -14 7 -56 36 -95 64 -80 59 -91 64 -201 100 -68 22 -100
26 -195 26 -98 0 -120 -3 -159 -22z m3399 -2807 c83 -28 122 -52 196 -120 89
-83 110 -116 144 -231 18 -58 36 -119 41 -136 6 -17 10 -75 10 -130 0 -85 -4
-110 -26 -165 -46 -112 -108 -184 -221 -252 -88 -53 -218 -70 -428 -55 -82 6
-162 12 -177 12 -16 1 -28 3 -28 6 0 3 -40 46 -89 96 -147 151 -196 277 -189
488 5 148 27 209 107 300 103 116 214 182 344 206 83 14 243 5 316 -19z m-803
-102 c23 -11 50 -29 60 -40 18 -20 17 -21 -13 -77 -48 -88 -63 -149 -67 -263
-5 -121 13 -227 49 -308 24 -52 25 -54 4 -35 -12 10 -37 43 -57 73 -38 57 -77
81 -135 81 -43 0 -103 -59 -112 -112 -17 -90 48 -208 152 -278 41 -27 54 -31
91 -26 l43 6 -26 -43 c-14 -23 -29 -48 -34 -56 -20 -33 -130 31 -261 151 -117
106 -150 176 -200 421 -17 82 -5 187 30 262 31 68 171 225 217 244 84 34 188
34 259 0z m2974 -456 c16 -53 28 -98 26 -100 -1 -2 -34 1 -72 7 -38 5 -75 10
-81 10 -7 0 -13 5 -13 11 0 10 100 169 107 169 1 0 16 -44 33 -97z m420 -47
c0 -52 -2 -56 -42 -89 -43 -35 -43 -35 -96 -23 l-53 12 29 27 c25 24 153 125
160 127 1 0 2 -24 2 -54z m119 -108 c-18 -15 -38 -27 -44 -25 -5 2 -11 24 -13
49 -3 38 1 49 19 62 22 15 24 14 47 -21 l25 -37 -34 -28z m180 -15 c1 -31 -29
-30 -59 2 -13 14 -22 26 -19 28 2 2 18 14 34 26 l30 23 6 -29 c4 -15 7 -38 8
-50z m-3586 -202 l26 -39 -24 -5 c-14 -2 -27 -2 -30 1 -6 6 -7 82 -1 82 2 0
15 -18 29 -39z m2715 -218 c48 -43 113 -104 146 -135 33 -32 62 -58 64 -58 10
0 137 -84 149 -98 7 -9 9 -21 4 -31 -5 -9 -11 -83 -15 -166 -10 -238 -62 -643
-105 -830 -46 -196 -90 -495 -121 -820 -15 -155 -37 -313 -71 -512 -45 -263
-137 -737 -164 -843 -37 -149 -109 -343 -153 -418 -46 -77 -157 -208 -219
-260 l-43 -34 5 83 c2 46 9 156 15 244 5 88 15 275 20 415 6 140 15 305 20
365 13 141 12 302 0 487 l-10 148 34 137 c40 160 126 604 156 808 11 77 45
333 75 568 30 235 61 456 69 490 34 148 59 351 53 445 -3 50 -3 92 0 92 2 0
43 -35 91 -77z m-151 -122 c-3 -75 -10 -170 -17 -211 -32 -210 -43 -291 -80
-595 -23 -181 -56 -431 -75 -555 -36 -237 -126 -717 -147 -785 -11 -33 -14 70
-19 620 -4 510 -9 696 -22 820 -9 88 -21 205 -27 260 -16 159 -30 278 -35 302
-4 18 0 24 22 29 80 18 102 26 150 56 53 34 173 143 173 158 0 12 63 49 73 43
6 -3 7 -63 4 -142z"/>
<path d="M3319 5481 c-77 -24 -103 -65 -97 -152 5 -75 53 -148 145 -224 73
-60 108 -69 163 -40 51 26 74 71 76 147 2 65 0 70 -46 139 -74 111 -156 155
-241 130z"/>
<path d="M510 8835 c0 -43 248 -470 378 -652 93 -131 204 -271 215 -272 20 -2
1 32 -61 109 -152 190 -255 348 -436 670 -48 84 -74 141 -70 152 3 12 0 18
-10 18 -10 0 -16 -9 -16 -25z"/>
<path d="M8964 8431 c-308 -148 -614 -345 -931 -598 -97 -77 -133 -116 -133
-141 0 -10 15 -1 40 25 88 93 429 346 632 469 150 92 384 219 470 255 32 13
58 30 58 37 0 18 -5 16 -136 -47z"/>
<path d="M1187 8464 c-10 -10 20 -94 49 -137 59 -90 450 -573 671 -829 223
-258 668 -703 819 -820 85 -65 242 -159 249 -148 3 5 -14 22 -37 36 -226 144
-292 200 -618 525 -254 253 -578 626 -925 1065 -139 176 -173 226 -181 270 -6
34 -16 48 -27 38z"/>
<path d="M495 8110 c-3 -5 -4 -14 -1 -19 7 -11 270 -154 406 -220 56 -28 108
-55 115 -61 21 -17 27 5 7 23 -10 9 -44 28 -77 43 -114 51 -415 219 -415 231
0 15 -26 17 -35 3z"/>
<path d="M1108 7785 c-17 -37 17 -81 173 -225 74 -68 244 -234 379 -370 135
-136 294 -287 354 -336 60 -49 144 -118 186 -154 134 -113 420 -310 451 -310
25 0 2 22 -63 60 -155 92 -433 309 -678 528 -52 47 -183 176 -291 286 -108
111 -244 244 -304 296 -138 122 -189 185 -181 222 7 35 -10 37 -26 3z"/>
<path d="M2769 1465 c-14 -8 -31 -27 -38 -42 -11 -27 -15 -28 -78 -28 -63 0
-67 2 -103 38 l-38 37 -121 0 c-114 0 -123 -2 -145 -23 -13 -13 -25 -29 -27
-36 -4 -10 -13 -11 -49 -1 -54 15 -169 6 -210 -15 -27 -14 -35 -13 -104 10
-90 30 -116 31 -189 6 -69 -24 -187 -116 -224 -174 -33 -52 -82 -174 -83 -205
0 -12 -8 -25 -17 -29 -47 -16 -260 -142 -298 -176 -58 -50 -95 -126 -95 -194
0 -65 16 -98 66 -137 50 -40 108 -60 254 -89 107 -22 171 -27 440 -37 173 -6
353 -16 400 -22 47 -6 114 -15 150 -19 36 -5 274 -12 530 -15 499 -7 591 -3
895 41 219 31 305 57 363 110 l45 41 -13 54 c-15 66 -64 163 -102 200 -28 29
-72 38 -252 56 l-68 7 6 36 c18 105 18 141 0 221 -21 100 -56 155 -139 223
-81 66 -127 87 -198 87 -53 0 -61 -3 -101 -40 l-44 -41 -30 53 c-46 82 -65 94
-161 107 -112 15 -190 13 -222 -4z m-1419 -532 c0 -49 54 -145 112 -199 43
-41 65 -54 107 -63 65 -14 178 -14 186 -1 14 23 56 9 98 -34 59 -61 120 -75
232 -51 44 9 96 18 115 19 40 3 94 28 128 59 19 18 26 19 40 9 32 -23 127 -69
157 -77 73 -18 189 -14 265 10 41 12 93 28 116 34 23 6 57 22 76 34 l34 24 55
-25 c58 -26 78 -32 204 -62 102 -25 132 -25 216 0 82 25 121 55 146 115 10 24
25 46 33 47 8 2 66 -3 130 -10 135 -15 150 -23 196 -108 44 -79 52 -132 26
-160 -30 -32 -173 -72 -357 -99 -167 -25 -223 -28 -815 -39 -228 -5 -574 11
-675 30 -50 9 -194 19 -385 25 -349 11 -489 22 -551 43 -24 9 -53 16 -64 16
-36 0 -120 46 -153 84 -36 41 -40 76 -18 139 28 76 56 104 179 174 65 36 126
72 135 79 25 20 32 17 32 -13z"/>
</g>
</svg>
